inDegrees=yes
name=ik_MT_2026-09-03_17h20_01210270-000-000_orientations
DataType=double
version=3
OpenSimVersion=4.5
endheader
time	pelvis_tilt	pelvis_list	pelvis_rotation	pelvis_tx	pelvis_ty	pelvis_tz	hip_flexion_r	hip_adduction_r	hip_rotation_r	knee_angle_r	knee_angle_r_beta	ankle_angle_r	subtalar_angle_r	mtp_angle_r	hip_flexion_l	hip_adduction_l	hip_rotation_l	knee_angle_l	knee_angle_l_beta	ankle_angle_l	subtalar_angle_l	mtp_angle_l	lumbar_extension	lumbar_bending	lumbar_rotation	arm_flex_r	arm_add_r	arm_rot_r	elbow_flex_r	pro_sup_r	wrist_flex_r	wrist_dev_r	arm_flex_l	arm_add_l	arm_rot_l	elbow_flex_l	pro_sup_l	wrist_flex_l	wrist_dev_l
28.75	1.980813959886734	3.738641556920647	-324.110111292967	0	0.9399999999999999	0	-3.913638584557111	7.307685565018295	6.72063415182033	10.75669118315387	0.1877396777662794	5.573109749196282	0	0	24.48507686151368	1.737653612486343	8.733016572630518	5.255069650640527	0.09171826782530533	-9.881249992419109	0	0	-15.88997107853701	0.3432195172404993	4.202276229556882	16.65857067060711	-11.99930834364193	7.959995323712137	16.48041472483476	45.00000025534049	0	0	-6.008441755453786	4.122448601561847	-21.94273571289841	0.1382969141551165	45.00000025534049	0	0
28.775	1.975721724714681	3.976911521303532	-325.3684750582809	0	0.9399999999999999	0	-4.716934989591772	7.024043537349297	7.552113397333541	12.31715762835554	0.2149749551019403	7.031825330640231	0	0	24.06759059582165	2.480924923142479	9.172236229284914	6.929713046970204	0.1209463088880385	-7.999629478086711	0	0	-15.68487373375925	-0.1267061262730813	3.67587607014532	15.93902012903644	-11.92643106911997	7.530676275018418	16.80451590456475	45.00000025534049	0	0	-6.32150365477605	4.126014116888081	-22.43574753652197	0.1554903080638562	45.00000025534049	0	0
28.8	1.718900539732223	4.211124631313068	-326.4229139299001	0	0.9399999999999999	0	-4.944292700449717	6.556419534392878	8.283447253280526	14.32963432651547	0.2500992996044951	7.707220508181153	0	0	22.5632009680168	2.95461894280858	10.55783303862288	7.887769708536125	0.1376675520530289	-7.934283719972714	0	0	-14.82768376084665	-0.71770732484422	3.067273548110151	14.55410440318626	-11.95309049167095	6.401772372110148	17.19634750898424	45.00000025534049	0	0	-6.688066687574955	3.987338489821606	-22.95535839851067	0.1723383307341135	45.00000025534049	0	0
28.825	1.555436940303323	4.947280194773632	-326.8733318940979	0	0.9399999999999999	0	-5.012036451628937	5.866116995064652	8.110695612112153	17.02485690842795	0.2971398077329704	5.604697086685138	0	0	22.82958382230139	3.671508218259981	11.47427696199616	9.830143243888246	0.1715683655485258	-13.50624448673717	0	0	-14.2010321584708	-1.444856302244362	2.068639465049998	12.91225293932324	-12.11091266731669	4.715122511661649	17.5368847961311	45.00000025534049	0	0	-6.854984839948623	3.801334004190507	-23.43320778290778	0.1955140679978696	45.00000025534049	0	0
28.85	0.8195512257053688	5.288666058905544	-326.7037324001914	0	0.9399999999999999	0	-3.576703816117521	5.047902740767328	6.544428894123793	20.84900459793908	0.3638837759974735	0.3140323992058297	0	0	24.15153681290858	6.14598583120081	15.34229562871576	13.47252318422058	0.2351398881159196	-13.20718365782574	0	0	-11.83382137831425	-2.023617388688287	0.850003885645939	10.19125040680541	-12.09123751712124	2.638484653764883	17.47677166236578	45.00000025534049	0	0	-7.631378945060557	3.456402645369165	-23.70383073690092	0.2265934236952512	45.00000025534049	0	0
28.875	0.7134663697774237	5.438673322632151	-326.7860042940441	0	0.9399999999999999	0	-1.716637926668072	4.192846550102604	3.991437347314788	25.80201120793978	0.4503300492150284	-7.257309264734355	0	0	22.13787454644206	6.535810374323655	14.97127314830326	15.19670226213565	0.2652324899195376	-12.65996957350728	0	0	-8.651629476916252	-2.471212511824954	-0.3525228063797919	6.696094670484562	-11.44560981011281	1.412599504020106	16.49763653824445	45.00000025534049	0	0	-9.226567444043695	2.83877660368108	-24.2366365458412	0.2777845215827143	45.00000025534049	0	0
28.9	1.260568221570216	5.478687280311547	-327.768004976353	0	0.9399999999999999	0	0.2664842656269436	3.260016238415187	1.731984762313206	31.86160536771204	0.5560899186376738	-13.25797624007383	0	0	19.36728509840842	6.183796080709593	13.14167318247038	14.88907447772734	0.2598633722109972	-15.62735564883377	0	0	-7.625822062351278	-2.870541290546641	-1.114748951279314	5.351856254536657	-10.41672097074004	1.520650799440622	14.51317934055191	45.00000025534049	0	0	-8.797404413856539	2.067685984224866	-25.0268895001779	0.3567108541606692	45.00000025534049	0	0
28.925	1.51457303641063	5.606629985173528	-329.1286517051453	0	0.9399999999999999	0	2.919331902702066	1.157588035636871	-0.2936889186564073	38.87624117997234	0.6785184093899227	-17.7536923475343	0	0	17.21027998822125	5.247500252209808	11.01200081851311	14.4013087031224	0.2513502534656005	-15.84896897832967	0	0	-8.342833674039408	-3.501498639611002	-1.977022207320619	6.020576610240861	-9.343936225160478	2.619718668062539	11.87877618044002	45.00000025534049	0	0	-6.275554430102559	1.303750119948323	-26.2335554931918	0.4774269168542525	45.00000025534049	0	0
